<mxfile host="app.diagrams.net" modified="2022-04-30T11:04:52.759Z" agent="5.0 (Macintosh)" etag="XzdJJHXc6ADHPqJGTz5C" version="17.5.0" type="github">
  <diagram name="Page-1" id="13e1069c-82ec-6db2-03f1-153e76fe0fe0">
    <mxGraphModel dx="1426" dy="792" grid="1" gridSize="10" guides="1" tooltips="1" connect="1" arrows="1" fold="1" page="1" pageScale="1" pageWidth="1100" pageHeight="850" background="none" math="0" shadow="0">
      <root>
        <mxCell id="0" />
        <mxCell id="1" parent="0" />
        <mxCell id="y29E7LGczWHBJR3IAo6A-11" value="Actors" style="swimlane;fontStyle=1;childLayout=stackLayout;horizontal=1;startSize=30;horizontalStack=0;resizeParent=1;resizeParentMax=0;resizeLast=0;collapsible=1;marginBottom=0;flipH=0;flipV=0;direction=east;align=left;" vertex="1" parent="1">
          <mxGeometry x="10" y="230" width="1080" height="530" as="geometry">
            <mxRectangle x="10" y="200" width="70" height="30" as="alternateBounds" />
          </mxGeometry>
        </mxCell>
        <mxCell id="y29E7LGczWHBJR3IAo6A-12" value="Fisher" style="text;strokeColor=default;fillColor=default;align=left;verticalAlign=middle;spacingLeft=4;spacingRight=4;overflow=hidden;points=[[0,0.5],[1,0.5]];portConstraint=eastwest;rotatable=0;dashed=1;dashPattern=1 4;" vertex="1" parent="y29E7LGczWHBJR3IAo6A-11">
          <mxGeometry y="30" width="1080" height="100" as="geometry" />
        </mxCell>
        <mxCell id="y29E7LGczWHBJR3IAo6A-13" value="Regulator" style="text;strokeColor=default;fillColor=default;align=left;verticalAlign=middle;spacingLeft=4;spacingRight=4;overflow=hidden;points=[[0,0.5],[1,0.5]];portConstraint=eastwest;rotatable=0;dashed=1;dashPattern=1 4;" vertex="1" parent="y29E7LGczWHBJR3IAo6A-11">
          <mxGeometry y="130" width="1080" height="100" as="geometry" />
        </mxCell>
        <mxCell id="y29E7LGczWHBJR3IAo6A-14" value="Processor" style="text;strokeColor=default;fillColor=default;align=left;verticalAlign=middle;spacingLeft=4;spacingRight=4;overflow=hidden;points=[[0,0.5],[1,0.5]];portConstraint=eastwest;rotatable=0;dashed=1;dashPattern=1 4;" vertex="1" parent="y29E7LGczWHBJR3IAo6A-11">
          <mxGeometry y="230" width="1080" height="100" as="geometry" />
        </mxCell>
        <mxCell id="y29E7LGczWHBJR3IAo6A-16" value="Distributor/Retailer" style="text;strokeColor=default;fillColor=default;align=left;verticalAlign=middle;spacingLeft=4;spacingRight=4;overflow=hidden;points=[[0,0.5],[1,0.5]];portConstraint=eastwest;rotatable=0;dashed=1;dashPattern=1 4;" vertex="1" parent="y29E7LGczWHBJR3IAo6A-11">
          <mxGeometry y="330" width="1080" height="100" as="geometry" />
        </mxCell>
        <mxCell id="y29E7LGczWHBJR3IAo6A-17" value="Consumer" style="text;strokeColor=default;fillColor=default;align=left;verticalAlign=middle;spacingLeft=4;spacingRight=4;overflow=hidden;points=[[0,0.5],[1,0.5]];portConstraint=eastwest;rotatable=0;dashed=1;dashPattern=1 4;" vertex="1" parent="y29E7LGczWHBJR3IAo6A-11">
          <mxGeometry y="430" width="1080" height="100" as="geometry" />
        </mxCell>
        <mxCell id="y29E7LGczWHBJR3IAo6A-52" value="" style="rounded=0;whiteSpace=wrap;html=1;fillColor=none;" vertex="1" parent="1">
          <mxGeometry x="140" y="60" width="940" height="130" as="geometry" />
        </mxCell>
        <mxCell id="y29E7LGczWHBJR3IAo6A-1" value="&lt;div&gt;WWF Bait to Plate&lt;/div&gt;" style="text;html=1;strokeColor=none;fillColor=none;align=center;verticalAlign=middle;whiteSpace=wrap;rounded=0;" vertex="1" parent="1">
          <mxGeometry x="430" y="10" width="180" height="30" as="geometry" />
        </mxCell>
        <mxCell id="y29E7LGczWHBJR3IAo6A-3" value="&lt;div&gt;Caught&lt;/div&gt;" style="whiteSpace=wrap;html=1;aspect=fixed;strokeWidth=3;" vertex="1" parent="1">
          <mxGeometry x="150" y="100" width="80" height="80" as="geometry" />
        </mxCell>
        <mxCell id="y29E7LGczWHBJR3IAo6A-4" value="&lt;div&gt;Approved&lt;/div&gt;" style="whiteSpace=wrap;html=1;aspect=fixed;strokeWidth=3;" vertex="1" parent="1">
          <mxGeometry x="270" y="100" width="80" height="80" as="geometry" />
        </mxCell>
        <mxCell id="y29E7LGczWHBJR3IAo6A-5" value="&lt;div&gt;Landed&lt;/div&gt;" style="whiteSpace=wrap;html=1;aspect=fixed;strokeWidth=3;" vertex="1" parent="1">
          <mxGeometry x="390" y="100" width="80" height="80" as="geometry" />
        </mxCell>
        <mxCell id="y29E7LGczWHBJR3IAo6A-6" value="Received" style="whiteSpace=wrap;html=1;aspect=fixed;strokeWidth=3;" vertex="1" parent="1">
          <mxGeometry x="510" y="100" width="80" height="80" as="geometry" />
        </mxCell>
        <mxCell id="y29E7LGczWHBJR3IAo6A-7" value="Processed" style="whiteSpace=wrap;html=1;aspect=fixed;strokeWidth=3;" vertex="1" parent="1">
          <mxGeometry x="630" y="100" width="80" height="80" as="geometry" />
        </mxCell>
        <mxCell id="y29E7LGczWHBJR3IAo6A-8" value="Packed" style="whiteSpace=wrap;html=1;aspect=fixed;strokeWidth=3;" vertex="1" parent="1">
          <mxGeometry x="750" y="100" width="80" height="80" as="geometry" />
        </mxCell>
        <mxCell id="y29E7LGczWHBJR3IAo6A-9" value="Sold" style="whiteSpace=wrap;html=1;aspect=fixed;strokeWidth=3;" vertex="1" parent="1">
          <mxGeometry x="870" y="100" width="80" height="80" as="geometry" />
        </mxCell>
        <mxCell id="y29E7LGczWHBJR3IAo6A-10" value="Bait to Plate History" style="whiteSpace=wrap;html=1;aspect=fixed;strokeWidth=3;" vertex="1" parent="1">
          <mxGeometry x="990" y="100" width="80" height="80" as="geometry" />
        </mxCell>
        <mxCell id="y29E7LGczWHBJR3IAo6A-53" value="&lt;div&gt;&lt;span&gt;&lt;strong&gt;Business Process&lt;/strong&gt;&lt;/span&gt;&lt;/div&gt;" style="text;html=1;strokeColor=none;fillColor=none;align=center;verticalAlign=middle;whiteSpace=wrap;rounded=0;" vertex="1" parent="1">
          <mxGeometry x="530" y="60" width="160" height="30" as="geometry" />
        </mxCell>
        <mxCell id="y29E7LGczWHBJR3IAo6A-56" style="orthogonalLoop=1;jettySize=auto;html=1;dashed=1;rounded=1;strokeColor=default;endArrow=none;endFill=0;strokeWidth=3;" edge="1" parent="1" source="y29E7LGczWHBJR3IAo6A-55" target="y29E7LGczWHBJR3IAo6A-3">
          <mxGeometry relative="1" as="geometry" />
        </mxCell>
        <mxCell id="y29E7LGczWHBJR3IAo6A-58" style="edgeStyle=none;rounded=1;orthogonalLoop=1;jettySize=auto;html=1;endArrow=none;endFill=0;strokeColor=default;strokeWidth=3;" edge="1" parent="1" source="y29E7LGczWHBJR3IAo6A-55">
          <mxGeometry relative="1" as="geometry">
            <mxPoint x="190" y="410" as="targetPoint" />
          </mxGeometry>
        </mxCell>
        <mxCell id="y29E7LGczWHBJR3IAo6A-55" value="&lt;div&gt;Catch&lt;/div&gt;" style="ellipse;whiteSpace=wrap;html=1;strokeColor=default;fillColor=default;strokeWidth=3;" vertex="1" parent="1">
          <mxGeometry x="157.5" y="280" width="65" height="60" as="geometry" />
        </mxCell>
        <mxCell id="y29E7LGczWHBJR3IAo6A-59" style="edgeStyle=none;rounded=1;orthogonalLoop=1;jettySize=auto;html=1;endArrow=none;endFill=0;strokeColor=default;startArrow=block;startFill=1;strokeWidth=3;" edge="1" parent="1" source="y29E7LGczWHBJR3IAo6A-57">
          <mxGeometry relative="1" as="geometry">
            <mxPoint x="190" y="410" as="targetPoint" />
          </mxGeometry>
        </mxCell>
        <mxCell id="y29E7LGczWHBJR3IAo6A-60" style="edgeStyle=none;rounded=1;orthogonalLoop=1;jettySize=auto;html=1;dashed=1;startArrow=none;startFill=0;endArrow=none;endFill=0;strokeColor=default;strokeWidth=3;" edge="1" parent="1" source="y29E7LGczWHBJR3IAo6A-57" target="y29E7LGczWHBJR3IAo6A-4">
          <mxGeometry relative="1" as="geometry" />
        </mxCell>
        <mxCell id="y29E7LGczWHBJR3IAo6A-57" value="Approve" style="ellipse;whiteSpace=wrap;html=1;strokeColor=default;fillColor=default;strokeWidth=3;" vertex="1" parent="1">
          <mxGeometry x="277.5" y="380" width="65" height="60" as="geometry" />
        </mxCell>
        <mxCell id="y29E7LGczWHBJR3IAo6A-62" style="edgeStyle=none;rounded=1;orthogonalLoop=1;jettySize=auto;html=1;entryX=0.5;entryY=1;entryDx=0;entryDy=0;dashed=1;startArrow=none;startFill=0;endArrow=none;endFill=0;strokeColor=default;strokeWidth=3;" edge="1" parent="1" source="y29E7LGczWHBJR3IAo6A-61" target="y29E7LGczWHBJR3IAo6A-5">
          <mxGeometry relative="1" as="geometry" />
        </mxCell>
        <mxCell id="y29E7LGczWHBJR3IAo6A-82" style="edgeStyle=none;rounded=0;orthogonalLoop=1;jettySize=auto;html=1;startArrow=classic;startFill=1;endArrow=none;endFill=0;strokeColor=default;strokeWidth=3;" edge="1" parent="1" source="y29E7LGczWHBJR3IAo6A-61" target="y29E7LGczWHBJR3IAo6A-57">
          <mxGeometry relative="1" as="geometry">
            <Array as="points">
              <mxPoint x="430" y="410" />
            </Array>
          </mxGeometry>
        </mxCell>
        <mxCell id="y29E7LGczWHBJR3IAo6A-61" value="Land" style="ellipse;whiteSpace=wrap;html=1;strokeColor=default;fillColor=default;strokeWidth=3;" vertex="1" parent="1">
          <mxGeometry x="397.5" y="280" width="65" height="60" as="geometry" />
        </mxCell>
        <mxCell id="y29E7LGczWHBJR3IAo6A-67" style="edgeStyle=none;rounded=0;orthogonalLoop=1;jettySize=auto;html=1;startArrow=classic;startFill=1;endArrow=none;endFill=0;strokeColor=default;entryX=0.638;entryY=1.067;entryDx=0;entryDy=0;entryPerimeter=0;strokeWidth=3;" edge="1" parent="1" source="y29E7LGczWHBJR3IAo6A-65" target="y29E7LGczWHBJR3IAo6A-61">
          <mxGeometry relative="1" as="geometry">
            <mxPoint x="360" y="510" as="targetPoint" />
            <Array as="points">
              <mxPoint x="440" y="510" />
            </Array>
          </mxGeometry>
        </mxCell>
        <mxCell id="y29E7LGczWHBJR3IAo6A-68" style="edgeStyle=none;rounded=0;orthogonalLoop=1;jettySize=auto;html=1;dashed=1;startArrow=none;startFill=0;endArrow=none;endFill=0;strokeColor=default;strokeWidth=3;" edge="1" parent="1" source="y29E7LGczWHBJR3IAo6A-65" target="y29E7LGczWHBJR3IAo6A-6">
          <mxGeometry relative="1" as="geometry" />
        </mxCell>
        <mxCell id="y29E7LGczWHBJR3IAo6A-65" value="Receive" style="ellipse;whiteSpace=wrap;html=1;strokeColor=default;fillColor=default;strokeWidth=3;" vertex="1" parent="1">
          <mxGeometry x="518" y="480" width="65" height="60" as="geometry" />
        </mxCell>
        <mxCell id="y29E7LGczWHBJR3IAo6A-71" style="edgeStyle=none;rounded=0;orthogonalLoop=1;jettySize=auto;html=1;entryX=1;entryY=0.5;entryDx=0;entryDy=0;startArrow=classic;startFill=1;endArrow=none;endFill=0;strokeColor=default;strokeWidth=3;" edge="1" parent="1" source="y29E7LGczWHBJR3IAo6A-69" target="y29E7LGczWHBJR3IAo6A-65">
          <mxGeometry relative="1" as="geometry" />
        </mxCell>
        <mxCell id="y29E7LGczWHBJR3IAo6A-74" style="edgeStyle=none;rounded=0;orthogonalLoop=1;jettySize=auto;html=1;entryX=0.5;entryY=1;entryDx=0;entryDy=0;dashed=1;startArrow=none;startFill=0;endArrow=none;endFill=0;strokeColor=default;strokeWidth=3;" edge="1" parent="1" source="y29E7LGczWHBJR3IAo6A-69" target="y29E7LGczWHBJR3IAo6A-7">
          <mxGeometry relative="1" as="geometry" />
        </mxCell>
        <mxCell id="y29E7LGczWHBJR3IAo6A-69" value="Process" style="ellipse;whiteSpace=wrap;html=1;strokeColor=default;fillColor=default;strokeWidth=3;" vertex="1" parent="1">
          <mxGeometry x="637.5" y="480" width="65" height="60" as="geometry" />
        </mxCell>
        <mxCell id="y29E7LGczWHBJR3IAo6A-73" style="edgeStyle=none;rounded=0;orthogonalLoop=1;jettySize=auto;html=1;entryX=1;entryY=0.5;entryDx=0;entryDy=0;startArrow=classic;startFill=1;endArrow=none;endFill=0;strokeColor=default;strokeWidth=3;" edge="1" parent="1" source="y29E7LGczWHBJR3IAo6A-72" target="y29E7LGczWHBJR3IAo6A-69">
          <mxGeometry relative="1" as="geometry" />
        </mxCell>
        <mxCell id="y29E7LGczWHBJR3IAo6A-75" style="edgeStyle=none;rounded=0;orthogonalLoop=1;jettySize=auto;html=1;entryX=0.5;entryY=1;entryDx=0;entryDy=0;dashed=1;startArrow=none;startFill=0;endArrow=none;endFill=0;strokeColor=default;strokeWidth=3;" edge="1" parent="1" source="y29E7LGczWHBJR3IAo6A-72" target="y29E7LGczWHBJR3IAo6A-8">
          <mxGeometry relative="1" as="geometry" />
        </mxCell>
        <mxCell id="y29E7LGczWHBJR3IAo6A-72" value="Pack" style="ellipse;whiteSpace=wrap;html=1;strokeColor=default;fillColor=default;strokeWidth=3;" vertex="1" parent="1">
          <mxGeometry x="757.5" y="480" width="65" height="60" as="geometry" />
        </mxCell>
        <mxCell id="y29E7LGczWHBJR3IAo6A-77" style="edgeStyle=none;rounded=0;orthogonalLoop=1;jettySize=auto;html=1;startArrow=classic;startFill=1;endArrow=none;endFill=0;strokeColor=default;entryX=0.5;entryY=1;entryDx=0;entryDy=0;strokeWidth=3;" edge="1" parent="1" source="y29E7LGczWHBJR3IAo6A-76" target="y29E7LGczWHBJR3IAo6A-72">
          <mxGeometry relative="1" as="geometry">
            <mxPoint x="730" y="610" as="targetPoint" />
            <Array as="points">
              <mxPoint x="790" y="610" />
            </Array>
          </mxGeometry>
        </mxCell>
        <mxCell id="y29E7LGczWHBJR3IAo6A-78" style="edgeStyle=none;rounded=0;orthogonalLoop=1;jettySize=auto;html=1;entryX=0.5;entryY=1;entryDx=0;entryDy=0;dashed=1;startArrow=none;startFill=0;endArrow=none;endFill=0;strokeColor=default;strokeWidth=3;" edge="1" parent="1" source="y29E7LGczWHBJR3IAo6A-76" target="y29E7LGczWHBJR3IAo6A-9">
          <mxGeometry relative="1" as="geometry" />
        </mxCell>
        <mxCell id="y29E7LGczWHBJR3IAo6A-76" value="Sell" style="ellipse;whiteSpace=wrap;html=1;strokeColor=default;fillColor=default;strokeWidth=3;" vertex="1" parent="1">
          <mxGeometry x="877.5" y="580" width="65" height="60" as="geometry" />
        </mxCell>
        <mxCell id="y29E7LGczWHBJR3IAo6A-80" style="edgeStyle=none;rounded=0;orthogonalLoop=1;jettySize=auto;html=1;dashed=1;startArrow=none;startFill=0;endArrow=none;endFill=0;strokeColor=default;strokeWidth=3;" edge="1" parent="1" source="y29E7LGczWHBJR3IAo6A-79" target="y29E7LGczWHBJR3IAo6A-10">
          <mxGeometry relative="1" as="geometry" />
        </mxCell>
        <mxCell id="y29E7LGczWHBJR3IAo6A-81" style="edgeStyle=none;rounded=0;orthogonalLoop=1;jettySize=auto;html=1;startArrow=classic;startFill=1;endArrow=none;endFill=0;strokeColor=default;entryX=0.5;entryY=1;entryDx=0;entryDy=0;strokeWidth=3;" edge="1" parent="1" source="y29E7LGczWHBJR3IAo6A-79" target="y29E7LGczWHBJR3IAo6A-76">
          <mxGeometry relative="1" as="geometry">
            <mxPoint x="810" y="710" as="targetPoint" />
            <Array as="points">
              <mxPoint x="910" y="710" />
            </Array>
          </mxGeometry>
        </mxCell>
        <mxCell id="y29E7LGczWHBJR3IAo6A-79" value="Consume" style="ellipse;whiteSpace=wrap;html=1;strokeColor=default;fillColor=default;strokeWidth=3;" vertex="1" parent="1">
          <mxGeometry x="997.5" y="680" width="65" height="60" as="geometry" />
        </mxCell>
      </root>
    </mxGraphModel>
  </diagram>
</mxfile>
